HIERARCHY
ROOT Hips
{
	OFFSET 49.935902 -7.705354 86.399498
	CHANNELS 6 Xposition Yposition Zposition Xrotation Yrotation Zrotation
	JOINT spine
	{
		OFFSET 0.000000 -0.393701 6.846367
		CHANNELS 3 Xrotation Yrotation Zrotation
		JOINT spine1
		{
			OFFSET 0.000000 -0.000002 9.496208
			CHANNELS 3 Xrotation Yrotation Zrotation
			JOINT spine2
			{
				OFFSET 0.000000 -0.000001 9.099091
				CHANNELS 3 Xrotation Yrotation Zrotation
				JOINT Neck
				{
					OFFSET 0.000000 -1.113784 23.361198
					CHANNELS 3 Xrotation Yrotation Zrotation
					JOINT Head
					{
						OFFSET 0.000000 -0.000001 7.058014
						CHANNELS 3 Xrotation Yrotation Zrotation
						End Site
						{
							OFFSET 0.000000 5.634187 17.084396
						}
					}
				}
				JOINT RightShoulder
				{
					OFFSET -3.831360 0.533489 9.826309
					CHANNELS 3 Xrotation Yrotation Zrotation
					JOINT RightArm
					{
						OFFSET 0.000000 -0.000002 12.888100
						CHANNELS 3 Xrotation Yrotation Zrotation
						JOINT RightArmRoll
						{
							OFFSET 0.000000 -0.000001 6.506165
							CHANNELS 3 Xrotation Yrotation Zrotation
							JOINT RightForeArm
							{
								OFFSET 0.000000 -0.000003 18.950104
								CHANNELS 3 Xrotation Yrotation Zrotation
								JOINT RightForeArmRoll
								{
									OFFSET 0.000000 -0.000001 7.300919
									CHANNELS 3 Xrotation Yrotation Zrotation
									JOINT RightHand
									{
										OFFSET 0.000000 -0.000002 14.651398
										CHANNELS 3 Xrotation Yrotation Zrotation
										End Site
										{
											OFFSET 0.000000 0.000000 0.100006
										}
									}
								}
							}
						}
					}
				}
				JOINT LeftShoulder
				{
					OFFSET 3.831360 0.533489 9.826309
					CHANNELS 3 Xrotation Yrotation Zrotation
					JOINT LeftArm
					{
						OFFSET 0.000000 -0.000002 12.888100
						CHANNELS 3 Xrotation Yrotation Zrotation
						JOINT LeftArmRoll
						{
							OFFSET 0.000000 -0.000001 6.506165
							CHANNELS 3 Xrotation Yrotation Zrotation
							JOINT LeftForeArm
							{
								OFFSET 0.000000 -0.000003 18.950104
								CHANNELS 3 Xrotation Yrotation Zrotation
								JOINT LeftForeArmRoll
								{
									OFFSET 0.000000 -0.000001 7.300919
									CHANNELS 3 Xrotation Yrotation Zrotation
									JOINT LeftHand
									{
										OFFSET 0.000000 -0.000002 14.651398
										CHANNELS 3 Xrotation Yrotation Zrotation
										End Site
										{
											OFFSET 0.000000 0.000000 0.100006
										}
									}
								}
							}
						}
					}
				}
			}
		}
	}
	JOINT RightUpLeg
	{
		OFFSET -6.068371 0.933477 -1.112778
		CHANNELS 3 Xrotation Yrotation Zrotation
		JOINT RightUpLegRoll
		{
			OFFSET 0.000000 -0.000003 17.179604
			CHANNELS 3 Xrotation Yrotation Zrotation
			JOINT RightLeg
			{
				OFFSET 0.000000 0.000003 -21.274300
				CHANNELS 3 Xrotation Yrotation Zrotation
				JOINT RightLegRoll
				{
					OFFSET 0.000000 -0.000003 21.343903
					CHANNELS 3 Xrotation Yrotation Zrotation
					JOINT RightFoot
					{
						OFFSET 0.000000 -0.000003 17.765198
						CHANNELS 3 Xrotation Yrotation Zrotation
						JOINT RightToeBase
						{
							OFFSET 0.000000 -0.000002 14.850792
							CHANNELS 3 Xrotation Yrotation Zrotation
							End Site
							{
								OFFSET 0.006294 0.829004 7.192123
							}
						}
					}
				}
			}
		}
	}
	JOINT LeftUpLeg
	{
		OFFSET 6.068371 0.933477 -1.112778
		CHANNELS 3 Xrotation Yrotation Zrotation
		JOINT LeftUpLegRoll
		{
			OFFSET 0.000000 -0.000003 17.179703
			CHANNELS 3 Xrotation Yrotation Zrotation
			JOINT LeftLeg
			{
				OFFSET 0.000000 -0.000003 21.274200
				CHANNELS 3 Xrotation Yrotation Zrotation
				JOINT LeftLegRoll
				{
					OFFSET 0.000000 -0.000004 21.541206
					CHANNELS 3 Xrotation Yrotation Zrotation
					JOINT LeftFoot
					{
						OFFSET 0.000000 -0.000003 17.567902
						CHANNELS 3 Xrotation Yrotation Zrotation
						JOINT LeftToeBase
						{
							OFFSET 0.000000 -0.000002 14.850800
							CHANNELS 3 Xrotation Yrotation Zrotation
							End Site
							{
								OFFSET -0.028210 0.829003 7.192139
							}
						}
					}
				}
			}
		}
	}
}
MOTION
Frames: 7
Frame Time: 0.041667
50.141994 -6.541979 86.465996 -3.667600 -0.123414 -1.333701 -1.892451 -1.443523 1.350529 0.254852 -2.923911 2.662100 1.900061 -2.892132 2.696914 9.363944 19.113939 -4.784623 7.368743 -15.162318 -4.558705 -11.948823 -49.080124 -13.613374 -44.465375 -119.154166 -55.025220 -0.000004 -0.000007 0.000001 38.822467 -12.497778 6.355117 0.000003 0.000008 -3.005871 -4.999652 -7.998698 -0.000060 -33.118539 74.854441 37.703969 -74.044469 119.334770 74.682798 -0.000002 -0.000022 0.000004 45.983774 15.472250 -6.436862 0.000011 -0.000008 3.006050 -4.999875 7.998768 0.000003 -13.223694 -179.765388 -2.103090 179.999991 -0.000005 -1.324000 154.947213 -3.476943 -1.276799 0.000001 -0.000003 0.719060 72.889197 7.546241 -0.046539 25.456955 -7.355615 0.000000 -11.274389 176.402599 -0.974048 -0.000005 0.000011 -0.874600 -25.753484 1.948688 1.284667 -0.000003 -0.000000 -0.445932 74.935337 -6.065674 -4.171782 25.456957 7.355614 -0.000000 
50.145298 -6.543264 86.468399 -3.668539 -0.124518 -1.333723 -1.892512 -1.443513 1.350207 0.255457 -2.923451 2.661938 1.900671 -2.891671 2.696739 9.370687 19.106568 -4.784718 7.366481 -15.161299 -4.557273 -11.950670 -49.083946 -13.615895 -44.480183 -119.159111 -55.071283 -0.000003 -0.000008 0.000002 38.852582 -12.482947 6.357528 0.000002 0.000008 -3.005870 -4.999657 -7.998700 -0.000063 -33.109622 74.847720 37.694882 -74.017558 119.345521 74.665026 -0.000002 -0.000022 0.000005 45.984112 15.475303 -6.437395 0.000011 -0.000008 3.006050 -4.999879 7.998768 0.000003 -13.222593 -179.766372 -2.106645 179.999991 -0.000005 -1.324000 154.948210 -3.473342 -1.276044 0.000002 -0.000003 0.719061 72.888097 7.545213 -0.043920 25.456955 -7.355614 0.000000 -11.270671 176.403528 -0.973186 -0.000005 0.000011 -0.874600 -25.750460 1.947431 1.284662 -0.000004 -0.000000 -0.445932 74.934777 -6.065352 -4.173069 25.456957 7.355616 -0.000001 
50.131195 -6.544319 86.471199 -3.669397 -0.125590 -1.333834 -1.892603 -1.443483 1.349866 0.256035 -2.922961 2.661756 1.901240 -2.891172 2.696561 9.377350 19.099401 -4.784796 7.364062 -15.160387 -4.555849 -11.952485 -49.087767 -13.618367 -44.494677 -119.163947 -55.116980 -0.000002 -0.000009 0.000002 38.882597 -12.468217 6.359972 0.000000 0.000009 -3.005870 -4.999653 -7.998700 -0.000064 -33.100589 74.840794 37.685702 -73.990005 119.356381 74.646229 -0.000002 -0.000022 0.000006 45.984313 15.478312 -6.437793 0.000011 -0.000008 3.006051 -4.999880 7.998768 0.000003 -13.221493 -179.767341 -2.110273 179.999991 -0.000005 -1.324000 154.949316 -3.469744 -1.276280 0.000001 -0.000003 0.719061 72.886970 7.544123 -0.041408 25.456957 -7.355614 0.000000 -11.266849 176.404457 -0.972240 -0.000006 0.000011 -0.874600 -25.747435 1.946012 1.284661 -0.000004 -0.000000 -0.445932 74.934217 -6.065004 -4.174552 25.456957 7.355614 -0.000001 
50.137196 -6.546568 86.473091 -3.670218 -0.126638 -1.334003 -1.892721 -1.443453 1.349514 0.256594 -2.922441 2.661562 1.901800 -2.890649 2.696362 9.383937 19.092138 -4.784825 7.361543 -15.159677 -4.554396 -11.954296 -49.091694 -13.620852 -44.509010 -119.168701 -55.162445 -0.000002 -0.000007 -0.000000 38.912496 -12.453436 6.362324 0.000004 0.000008 -3.005870 -4.999655 -7.998700 -0.000063 -33.091303 74.833663 37.676269 -73.961981 119.367118 74.626777 -0.000006 -0.000021 0.000004 45.984535 15.481322 -6.438165 0.000012 -0.000008 3.006051 -4.999876 7.998767 0.000003 -13.220490 -179.768298 -2.113940 179.999991 -0.000005 -1.324000 154.950450 -3.465243 -1.276106 0.000001 -0.000003 0.719061 72.885741 7.543043 -0.038787 25.456955 -7.355614 -0.000000 -11.263025 176.405399 -0.971234 -0.000006 0.000011 -0.874600 -25.744405 1.944476 1.284658 -0.000004 -0.000000 -0.445932 74.933732 -6.064620 -4.176026 25.456957 7.355615 -0.000000 
50.145596 -6.544468 86.471794 -3.670999 -0.127672 -1.334201 -1.892851 -1.443423 1.349152 0.257141 -2.921921 2.661368 1.902351 -2.890129 2.696163 9.390500 19.084976 -4.784857 7.358958 -15.158963 -4.552953 -11.956106 -49.095622 -13.623318 -44.524289 -119.172608 -55.209078 -0.000002 -0.000007 0.000001 38.942508 -12.438714 6.364757 0.000004 0.000008 -3.005872 -4.999654 -7.998700 -0.000061 -33.081967 74.826437 37.666775 -73.933772 119.377800 74.606990 -0.000002 -0.000021 0.000006 45.984850 15.484302 -6.438540 0.000013 -0.000008 3.006050 -4.999877 7.998767 0.000003 -13.219487 -179.769268 -2.117648 179.999991 -0.000005 -1.324000 154.951666 -3.461648 -1.276336 0.000001 -0.000003 0.719060 72.884491 7.541936 -0.036172 25.456959 -7.355614 -0.000000 -11.259106 176.406342 -0.970207 -0.000004 0.000010 -0.874600 -25.741380 1.942876 1.284659 -0.000004 0.000000 -0.445932 74.933254 -6.064210 -4.177800 25.456959 7.355613 -0.000000 
50.142296 -6.543629 86.470810 -3.671779 -0.128703 -1.334409 -1.892993 -1.443393 1.348799 0.257686 -2.921391 2.661163 1.902890 -2.889589 2.695962 9.397059 19.077914 -4.784902 7.356363 -15.158355 -4.551489 -11.957915 -49.099542 -13.625789 -44.538304 -119.177239 -55.254157 0.000001 -0.000008 0.000000 38.972424 -12.424011 6.367159 0.000003 0.000008 -3.005871 -4.999655 -7.998701 -0.000061 -33.072613 74.819190 37.657264 -73.905461 119.388606 74.587052 -0.000003 -0.000022 0.000004 45.985051 15.487244 -6.438814 0.000013 -0.000008 3.006050 -4.999877 7.998768 0.000004 -13.218487 -179.771235 -2.121125 179.999991 -0.000005 -1.324000 154.952854 -3.458052 -1.276580 0.000001 -0.000003 0.719060 72.883262 7.540827 -0.033555 25.456959 -7.355615 0.000001 -11.255276 176.408241 -0.969356 -0.000003 0.000011 -0.874600 -25.738349 1.941259 1.284659 -0.000003 0.000000 -0.445932 74.932858 -6.063763 -4.179460 25.456959 7.355614 -0.000000 
50.141697 -6.535297 86.470001 -3.672577 -0.129741 -1.334607 -1.893133 -1.443352 1.348437 0.258235 -2.920861 2.660969 1.903441 -2.889069 2.695763 9.403633 19.070749 -4.784935 7.353791 -15.157648 -4.550040 -11.959725 -49.103466 -13.628264 -44.553724 -119.181228 -55.300896 0.000000 -0.000007 -0.000000 39.002426 -12.409226 6.369496 0.000003 0.000008 -3.005873 -4.999649 -7.998701 -0.000063 -33.063235 74.811977 37.647740 -73.877273 119.399302 74.567334 -0.000005 -0.000020 0.000004 45.985270 15.490251 -6.439173 0.000014 -0.000008 3.006050 -4.999879 7.998766 0.000003 -13.217488 -179.772205 -2.124823 179.999991 -0.000005 -1.324000 154.954056 -3.454470 -1.276817 0.000001 -0.000003 0.719060 72.882018 7.539748 -0.031036 25.456959 -7.355614 0.000000 -11.251357 176.409170 -0.968335 -0.000004 0.000011 -0.874600 -25.735325 1.939669 1.284657 -0.000004 -0.000000 -0.445932 74.932380 -6.063376 -4.181036 25.456957 7.355613 -0.000001 
